# AST/ASF file generated using VICON BodyLanguage
# -----------------------------------------------
:version 1.10
:name VICON
:units
  mass 1.0
  length 0.45
  angle deg
:documentation
   .ast/.asf automatically generated from VICON data using
   VICON BodyBuilder and BodyLanguage model FoxedUp or BRILLIANT.MOD
:root
   order TX TY TZ RX RY RZ
   axis XYZ
   position 0 0 0  
   orientation 0 0 0 
:bonedata
  begin
     id 1 
     name lhipjoint
     direction 0.643824 -0.71708 0.266994 
     length 2.52133 
     axis 0 0 0  XYZ
  end
  begin
     id 2 
     name lfemur
     direction 0.34202 -0.939693 0  
     length 7.51824  
     axis 0 0 20  XYZ
    dof rx ry rz
    limits (-160.0 20.0)
           (-70.0 70.0)
           (-60.0 70.0)
  end
  begin
     id 3 
     name ltibia
     direction 0.34202 -0.939693 0   
     length 7.3685   
     axis 0 0 20   XYZ
    dof rx
    limits (-10.0 170.0)
  end
  begin
     id 4 
     name lfoot
     direction 0.105419 -0.289636 0.951314   
     length 2.20972   
     axis -90 7.62852e-016 20   XYZ
    dof rx rz
    limits (-45.0 90.0)
           (-70.0 20.0)
  end
  begin
     id 5 
     name ltoes
     direction 1.53549e-011 -4.21833e-011 1   
     length 1.10139   
     axis -90 7.62852e-016 20   XYZ
    dof rx
    limits (-90.0 20.0)
  end
  begin
     id 6 
     name rhipjoint
     direction -0.608823 -0.743445 0.276811   
     length 2.43192  
     axis 0 0 0  XYZ 
  end
  begin
     id 7 
     name rfemur
     direction -0.34202 -0.939693 0   
     length 7.69715   
     axis 0 0 -20   XYZ
    dof rx ry rz
    limits (-160.0 20.0)
           (-70.0 70.0)
           (-70.0 60.0)
  end
  begin
     id 8 
     name rtibia
     direction -0.34202 -0.939693 0   
     length 7.44924   
     axis 0 0 -20   XYZ
    dof rx
    limits (-10.0 170.0)
 end
 begin
     id 9 
     name rfoot
     direction -0.103614 -0.284677 0.953007   
     length 2.22623  
     axis -90 -7.62852e-016 -20   XYZ
    dof rx rz
    limits (-45.0 90.0)
           (-20.0 70.0)
  end
  begin
     id 10 
     name rtoes
     direction -1.53537e-011 -4.22026e-011 1   
     length 1.11   
     axis -90 -7.62852e-016 -20   XYZ
    dof rx
    limits (-90.0 20.0)
  end
  begin
     id 11 
     name lowerback
     direction -0.0101212 0.99662 -0.0815298   
     length 2.08277   
     axis 0 0 0   XYZ
    dof rx ry rz
    limits (-20.0 45.0)
           (-30.0 30.0)
           (-30.0 30.0)
  end
  begin
     id 12 
     name upperback
     direction 0.024314 0.999591 -0.0150645   
     length 2.08524   
     axis 0 0 0   XYZ
    dof rx ry rz
    limits (-20.0 45.0)
           (-30.0 30.0)
           (-30.0 30.0)
  end
  begin
     id 13 
     name thorax
     direction 0.0285959 0.999323 0.0231357   
     length 2.09645   
     axis 0 0 0   XYZ
    dof rx ry rz
    limits (-20.0 45.0)
           (-30.0 30.0)
           (-30.0 30.0)
  end
  begin
     id 14 
     name lowerneck
     direction -0.065512 0.979301 0.191515   
     length 1.63798   
     axis 0 0 0   XYZ
    dof rx ry rz
    limits (-20.0 45.0)
           (-30.0 30.0)
           (-30.0 30.0)
  end
  begin
     id 15 
     name upperneck
     direction 0.0498479 0.98191 -0.182667   
     length 1.68731   
     axis 0 0 0   XYZ
    dof rx ry rz
    limits (-20.0 45.0)
           (-30.0 30.0)
           (-30.0 30.0)
  end
  begin
     id 16
     name head
     direction 0.0230358 0.996257 -0.0833175  
     length 1.69785  
     axis 0 0 0   XYZ
    dof rx ry rz
    limits (-20.0 45.0)
           (-30.0 30.0)
           (-30.0 30.0)
  end
  begin
     id 17 
     name lclavicle
     direction 0.967963 0.201165 -0.150269  
     length 3.63976  
     axis 0 0 0   XYZ
    dof ry rz
    limits (-20.0 10.0)
           (0.0 20.0)
  end
  begin
     id 18 
     name lhumerus
     direction 1 -4.48954e-011 -2.92837e-028   
     length 5.32462   
     axis 180 -30 -90   XYZ
    dof rx ry rz
    limits (-60.0 90.0)
           (-90.0 90.0)
           (-90.0 90.0)
  end
  begin
     id 19
     name lradius
     direction 1 -4.48958e-011 -6.39511e-027   
     length 3.48402   
     axis 180 -30 -90   XYZ
    dof rx
    limits (-10.0 170.0)
  end
  begin
     id 20
     name lwrist
     direction 1 -4.48975e-011 -1.1413e-026   
     length 1.74201   
     axis 6.88575e-015 90 90   XYZ
    dof ry
    limits (-180.0 0.0)
 end
  begin
     id 21 
     name lhand
     direction 1 -4.48899e-011 -2.28192e-026   
     length 0.572476   
     axis 1.45643e-014 90 90   XYZ
    dof rx rz
    limits (-90.0 90.0)
           (-45.0 45.0)
  end
  begin
     id 22 
     name lfingers
     direction 1 -4.49155e-011 -4.5684e-026   
     length 0.461545   
     axis 2.91283e-014 90 90   XYZ
    dof rx
    limits (0.0 90.0)
  end
  begin
     id 23
     name lthumb
     direction 0.707107 -6.34943e-011 0.707107   
     length 0.662688   
     axis -90 45 -2.25915e-014   XYZ
    dof rx rz
    limits (-45.0 45.0)
           (-45.0 45.0)
  end
  begin
     id 24 
     name rclavicle
     direction -0.964103 0.264019 -0.0282629   
     length 3.54491  
     axis 0 0 0   XYZ 
    dof ry rz
    limits (-10.0 20.0)
           (-20.0 0.0)
  end
  begin
     id 25 
     name rhumerus
     direction -1 -4.48964e-011 -2.45032e-027  
     length 5.33589   
     axis 180 30 90   XYZ
    dof rx ry rz
    limits (-90.0 60.0)
           (-90.0 90.0)
           (-90.0 90.0)
  end
  begin
     id 26 
     name rradius
     direction -1 -4.48987e-011 -1.55093e-027   
     length 3.64134   
     axis 180 30 90   XYZ
    dof rx
    limits (-10.0 170.0)
  end
  begin
     id 27 
     name rwrist
     direction -1 -4.4897e-011 -1.14128e-026   
     length 1.82067   
     axis 6.88575e-015 -90 -90   XYZ
    dof ry
    limits (-180.0 0.0)
  end
  begin
     id 28
     name rhand
     direction -1 -4.49021e-011 -2.28301e-026   
     length 0.734811   
     axis 1.45643e-014 -90 -90   XYZ
    dof rx rz
    limits (-90.0 90.0)
           (-45.0 45.0)
  end
  begin
     id 29
     name rfingers
     direction -1 -4.48862e-011 -4.56319e-026   
     length 0.592424   
     axis 2.91283e-014 -90 -90   XYZ
    dof rx
    limits (0.0 90.0)
  end
  begin
     id 30
     name rthumb
     direction -0.707107 -6.34978e-011 0.707107   
     length 0.850605   
     axis -90 -45 2.25915e-014   XYZ
    dof rx rz
    limits (-45.0 45.0)
           (-45.0 45.0)
  end
:hierarchy
  begin
    root lhipjoint rhipjoint lowerback
    lhipjoint lfemur
    lfemur ltibia
    ltibia lfoot
    lfoot ltoes
    rhipjoint rfemur
    rfemur rtibia
    rtibia rfoot
    rfoot rtoes
    lowerback upperback
    upperback thorax
    thorax lowerneck lclavicle rclavicle
    lowerneck upperneck
    upperneck head
    lclavicle lhumerus
    lhumerus lradius
    lradius lwrist
    lwrist lhand lthumb
    lhand lfingers
    rclavicle rhumerus
    rhumerus rradius
    rradius rwrist
    rwrist rhand rthumb
    rhand rfingers
  end

#!OML:ASF F:\VICON\USERDATA\INSTALL\rory3\rory3.ASF
:FULLY-SPECIFIED
:DEGREES
1
root 1.47382 17.8471 -0.676246 5.66915 -16.0658 1.82396
lowerback 4.96005 0.360644 -6.26184
upperback 1.58694 0.162701 -0.478139
thorax -1.1588 0.0777163 3.01038
lowerneck -17.3692 -6.67409 -14.8481
upperneck 21.2117 -6.38886 5.1265
head 10.3479 -3.57294 3.3378
rclavicle 1.73937e-014 5.96354e-015
rhumerus -24.4408 -0.817859 -85.4743
rradius 37.4276
rwrist 18.9238
rhand -22.6402 4.09002
rfingers 7.12502
rthumb 3.79057 -25.856
lclavicle 1.73937e-014 5.96354e-015
lhumerus -31.5743 12.6979 78.4005
lradius 29.3065
lwrist -9.35483
lhand -6.95162 28.7716
lfingers 7.12502
lthumb 18.9174 57.8717
rfemur -19.8039 2.25441 9.09063
rtibia 30.2951
rfoot -15.6342 -9.60861
rtoes 0.601725
lfemur -12.623 1.57422 -25.392
ltibia 23.1267
lfoot -12.6135 -0.469396
ltoes -7.97604
2
root 1.47386 17.8463 -0.67488 5.63499 -16.2276 1.91911
lowerback 4.93096 0.354017 -6.34219
upperback 1.63065 0.153533 -0.492911
thorax -1.0964 0.0702031 3.04076
lowerneck -17.3991 -6.64271 -14.7766
upperneck 21.0919 -6.35403 5.1129
head 10.3024 -3.54903 3.3255
rclavicle -3.91109e-014 3.77691e-014
rhumerus -24.3662 -0.816696 -85.5483
rradius 37.2731
rwrist 18.9745
rhand -22.5798 4.07794
rfingers 7.12502
rthumb 3.84892 -25.867
lclavicle -3.91109e-014 3.77691e-014
lhumerus -31.4177 12.487 78.4853
lradius 29.704
lwrist -9.18423
lhand -8.06036 27.48
lfingers 7.12502
lthumb 17.8508 56.6807
rfemur -19.8759 2.32626 8.97291
rtibia 30.3619
rfoot -15.6294 -9.5298
rtoes 0.989121
lfemur -12.5646 1.55073 -25.4975
ltibia 23.0404
lfoot -12.634 -0.328291
ltoes -8.13397
3
root 1.4734 17.8445 -0.674989 5.59034 -16.3693 2.02808
lowerback 4.90434 0.343581 -6.47108
upperback 1.67676 0.137344 -0.485194
thorax -1.03216 0.0589239 3.12199
lowerneck -17.5334 -6.64529 -14.7546
upperneck 21.1307 -6.34894 5.13889
head 10.3406 -3.54096 3.32995
rclavicle 1.08835e-014 5.56597e-015
rhumerus -24.2731 -0.835473 -85.6
rradius 37.1197
rwrist 18.958
rhand -22.5023 4.21851
rfingers 7.12502
rthumb 3.92372 -25.7251
lclavicle 1.08835e-014 5.56597e-015
lhumerus -31.2853 12.3663 78.6005
lradius 30.0342
lwrist -9.05076
lhand -9.33003 26.3408
lfingers 7.12502
lthumb 16.6287 55.6485
rfemur -19.924 2.41845 8.84444
rtibia 30.3864
rfoot -15.5952 -9.49786
rtoes 1.14878
lfemur -12.5342 1.53167 -25.6185
ltibia 23.0277
lfoot -12.7249 -0.182991
ltoes -8.45052
4
root 1.47384 17.8419 -0.676521 5.55271 -16.498 2.08472
lowerback 4.9101 0.33385 -6.53418
upperback 1.70417 0.122408 -0.455067
thorax -1.00547 0.0498459 3.18942
lowerneck -17.6886 -6.66411 -14.7638
upperneck 21.2493 -6.34783 5.13165
head 10.4127 -3.54284 3.32678
rclavicle 3.67752e-015 2.94201e-014
rhumerus -24.1619 -0.879131 -85.6281
rradius 36.8532
rwrist 18.9378
rhand -22.5667 4.20818
rfingers 7.12502
rthumb 3.86151 -25.7366
lclavicle 3.67752e-015 2.94201e-014
lhumerus -31.1287 12.0295 78.8013
lradius 30.2562
lwrist -8.76076
lhand -9.9159 26.2208
lfingers 7.12502
lthumb 16.0646 55.5749
rfemur -19.9537 2.48464 8.77702
rtibia 30.404
rfoot -15.5797 -9.4362
rtoes 1.25311
lfemur -12.5045 1.5646 -25.6927
ltibia 23.0259
lfoot -12.6498 -0.0578694
ltoes -8.30324
5
root 1.47392 17.8418 -0.679017 5.56381 -16.5843 2.05142
lowerback 4.96783 0.325727 -6.49889
upperback 1.67393 0.108141 -0.419152
thorax -1.06763 0.0453775 3.20761
lowerneck -17.7481 -6.65759 -14.6872
upperneck 21.3624 -6.33281 5.04713
head 10.4577 -3.54173 3.28586
rclavicle -1.49089e-016 2.94201e-014
rhumerus -24.1997 -0.954892 -85.6615
rradius 36.6599
rwrist 18.8623
rhand -22.5076 4.13641
rfingers 7.12502
rthumb 3.91857 -25.8073
lclavicle -1.49089e-016 2.94201e-014
lhumerus -31.0644 11.6463 78.964
lradius 30.561
lwrist -8.42172
lhand -10.0964 26.3562
lfingers 7.12502
lthumb 15.8908 55.7242
rfemur -19.9945 2.5679 8.81096
rtibia 30.3997
rfoot -15.5005 -9.46866
rtoes 1.08864
lfemur -12.5053 1.58365 -25.6634
ltibia 23.0479
lfoot -12.5966 0.0312395
ltoes -8.16295
6
root 1.47431 17.8421 -0.68217 5.6177 -16.6425 2.00322
lowerback 5.04693 0.291209 -6.46308
upperback 1.59853 0.0558482 -0.367874
thorax -1.18453 0.0247169 3.24373
lowerneck -17.7273 -6.61133 -14.7026
upperneck 21.4094 -6.27732 5.08038
head 10.4664 -3.51567 3.31011
rclavicle 4.42793e-014 8.54774e-015
rhumerus -24.3309 -0.959428 -85.7037
rradius 36.5145
rwrist 18.8066
rhand -22.4149 4.17916
rfingers 7.12502
rthumb 4.00811 -25.7629
lclavicle 4.42793e-014 8.54774e-015
lhumerus -31.0799 11.4674 79.0242
lradius 30.8695
lwrist -8.28999
lhand -10.3371 25.7686
lfingers 7.12502
lthumb 15.659 55.1549
rfemur -20.0616 2.602 8.86509
rtibia 30.3711
rfoot -15.4045 -9.51653
rtoes 0.571482
lfemur -12.5801 1.49563 -25.6129
ltibia 23.1011
lfoot -12.6043 0.188322
ltoes -7.99965
7
root 1.47534 17.8414 -0.681358 5.66198 -16.7182 1.98044
lowerback 4.9747 0.245408 -6.41183
upperback 1.60209 0.00397211 -0.323444
thorax -1.13516 -0.00273528 3.26402
lowerneck -17.6667 -6.56772 -14.7717
upperneck 21.3288 -6.22489 5.15974
head 10.425 -3.48708 3.35894
rclavicle -6.55492e-014 2.18663e-015
rhumerus -24.2807 -0.985767 -85.7307
rradius 36.2708
rwrist 18.9338
rhand -21.873 3.4586
rfingers 7.12502
rthumb 4.53138 -26.4729
lclavicle -6.55492e-014 2.18663e-015
lhumerus -30.9559 11.3184 79.097
lradius 31.0524
lwrist -8.26883
lhand -10.7255 24.6935
lfingers 7.12502
lthumb 15.2849 54.1088
rfemur -20.1181 2.58638 8.89185
rtibia 30.3418
rfoot -15.3464 -9.52292
rtoes 0.344085
lfemur -12.6508 1.47321 -25.5954
ltibia 23.1673
lfoot -12.6188 0.258663
ltoes -7.90525
8
root 1.47462 17.8406 -0.681615 5.70871 -16.7738 1.94898
lowerback 4.87258 0.2165 -6.32179
upperback 1.65365 -0.0201681 -0.306579
thorax -1.02248 -0.0193612 3.23217
lowerneck -17.5696 -6.53366 -14.77
upperneck 21.1468 -6.20845 5.2345
head 10.3406 -3.46742 3.38891
rclavicle 3.42904e-015 -1.61016e-014
rhumerus -24.1434 -1.05918 -85.7932
rradius 36.0723
rwrist 19.0679
rhand -20.9411 1.66968
rfingers 7.12502
rthumb 5.43122 -28.2407
lclavicle 3.42904e-015 -1.61016e-014
lhumerus -30.7448 11.0221 79.2
lradius 31.3171
lwrist -8.17005
lhand -10.8817 24.3551
lfingers 7.12502
lthumb 15.1344 53.7817
rfemur -20.1738 2.62347 8.92547
rtibia 30.3183
rfoot -15.3582 -9.50507
rtoes 0.563246
lfemur -12.7272 1.59499 -25.5723
ltibia 23.2379
lfoot -12.7395 0.242712
ltoes -8.881
9
root 1.4737 17.84 -0.68645 5.71994 -16.8365 1.94412
lowerback 4.87572 0.186113 -6.3005
upperback 1.738 -0.05644 -0.282495
thorax -0.933274 -0.0421879 3.24711
lowerneck -17.6766 -6.51857 -14.6819
upperneck 21.0121 -6.19117 5.23488
head 10.3057 -3.44689 3.37463
rclavicle -2.36554e-014 -6.36111e-015
rhumerus -23.9574 -1.03137 -85.8626
rradius 35.9321
rwrist 19.0633
rhand -20.4949 0.500059
rfingers 7.12502
rthumb 5.86205 -29.3989
lclavicle -2.36554e-014 -6.36111e-015
lhumerus -30.4941 10.8397 79.2903
lradius 31.6238
lwrist -8.13474
lhand -10.9094 24.5019
lfingers 7.12502
lthumb 15.1077 53.9305
rfemur -20.2091 2.6606 8.94203
rtibia 30.3068
rfoot -15.2874 -9.51464
rtoes 0.408592
lfemur -12.7873 1.69997 -25.56
ltibia 23.2981
lfoot -12.836 0.199418
ltoes -9.10105
10
root 1.4727 17.8411 -0.690788 5.73077 -16.9151 1.92484
lowerback 4.92159 0.159973 -6.28676
upperback 1.77832 -0.0918739 -0.232859
thorax -0.913478 -0.0615061 3.29282
lowerneck -17.8834 -6.49277 -14.5408
upperneck 20.9989 -6.13043 5.11309
head 10.3231 -3.41795 3.3134
rclavicle 7.65321e-015 2.06736e-014
rhumerus -23.9375 -0.999983 -85.8881
rradius 35.8706
rwrist 19.049
rhand -20.4421 0.284961
rfingers 7.12502
rthumb 5.91298 -29.6125
lclavicle 7.65321e-015 2.06736e-014
lhumerus -30.3091 10.6929 79.3693
lradius 31.8726
lwrist -8.12092
lhand -11.0374 24.471
lfingers 7.12502
lthumb 14.9844 53.9089
rfemur -20.2398 2.74433 8.96475
rtibia 30.3086
rfoot -15.2697 -9.51874
rtoes 0.176527
lfemur -12.839 1.7598 -25.5397
ltibia 23.3563
lfoot -12.7756 0.22173
ltoes -8.91613
11
root 1.47127 17.8419 -0.694907 5.72205 -17.0079 1.93904
lowerback 4.96524 0.13818 -6.31118
upperback 1.7852 -0.124374 -0.184971
thorax -0.92709 -0.0776299 3.35807
lowerneck -18.0088 -6.45622 -14.4667
upperneck 21.0394 -6.05427 5.00565
head 10.3467 -3.38861 3.27245
rclavicle -5.16343e-014 1.98785e-015
rhumerus -24.0182 -1.06546 -85.8797
rradius 35.8188
rwrist 19.1843
rhand -20.2308 0.481081
rfingers 7.12502
rthumb 6.11697 -29.4106
lclavicle -5.16343e-014 1.98785e-015
lhumerus -30.164 10.5034 79.4557
lradius 32.0709
lwrist -7.99304
lhand -11.0827 24.5282
lfingers 7.12502
lthumb 14.9408 53.9693
rfemur -20.288 2.86603 8.94455
rtibia 30.328
rfoot -15.3336 -9.54159
rtoes 0.311707
lfemur -12.8698 1.80876 -25.5546
ltibia 23.4128
lfoot -12.7192 0.294963
ltoes -8.62403
12
root 1.47053 17.8413 -0.700741 5.77981 -17.098 1.98019
lowerback 4.93718 0.0876778 -6.31417
upperback 1.78054 -0.189645 -0.179348
thorax -0.909349 -0.11064 3.36913
lowerneck -18.0187 -6.40344 -14.5247
upperneck 20.9989 -5.99361 5.13498
head 10.333 -3.34957 3.33794
rclavicle -5.39203e-014 -4.77083e-015
rhumerus -24.0672 -1.03939 -85.9702
rradius 35.759
rwrist 19.3339
rhand -20.0703 0.703654
rfingers 7.12502
rthumb 6.27196 -29.1835
lclavicle -5.39203e-014 -4.77083e-015
lhumerus -30.0214 10.362 79.4629
lradius 32.3265
lwrist -7.7618
lhand -10.7003 24.7431
lfingers 7.12502
lthumb 15.3092 54.1565
rfemur -20.4374 2.96326 8.88966
rtibia 30.3529
rfoot -15.3898 -9.5551
rtoes 0.831211
lfemur -12.9813 1.75674 -25.5927
ltibia 23.452
lfoot -12.7081 0.421677
ltoes -8.52616
13
root 1.4691 17.8402 -0.707996 5.82374 -17.1562 1.96736
lowerback 4.98457 0.0634153 -6.24911
upperback 1.78935 -0.222006 -0.1769
thorax -0.923753 -0.126436 3.33713
lowerneck -18.0417 -6.38871 -14.604
upperneck 20.9609 -5.99569 5.33658
head 10.3321 -3.33252 3.42314
rclavicle -2.82771e-014 9.14409e-015
rhumerus -24.0585 -1.05495 -86.0448
rradius 35.6393
rwrist 19.4395
rhand -20.0795 0.755201
rfingers 7.12502
rthumb 6.26307 -29.1322
lclavicle -2.82771e-014 9.14409e-015
lhumerus -29.7935 10.0026 79.5149
lradius 32.5087
lwrist -7.45806
lhand -10.4991 24.6527
lfingers 7.12502
lthumb 15.503 54.0512
rfemur -20.5295 3.05436 8.90133
rtibia 30.3718
rfoot -15.4085 -9.56333
rtoes 1.12991
lfemur -13.0702 1.72398 -25.565
ltibia 23.4839
lfoot -12.6873 0.501445
ltoes -8.33923
14
root 1.46795 17.8404 -0.711962 5.82465 -17.2064 1.97069
lowerback 5.05026 0.0563827 -6.26509
upperback 1.82361 -0.235168 -0.1302
thorax -0.923254 -0.133997 3.39544
lowerneck -18.0567 -6.37145 -14.5249
upperneck 20.8339 -5.97739 5.29059
head 10.2822 -3.31931 3.3952
rclavicle -2.43014e-014 2.24627e-014
rhumerus -24.0664 -0.977014 -86.0619
rradius 35.5664
rwrist 19.5117
rhand -20.2185 0.836131
rfingers 7.12502
rthumb 6.12888 -29.0552
lclavicle -2.43014e-014 2.24627e-014
lhumerus -29.5267 9.60348 79.6822
lradius 32.6291
lwrist -7.23737
lhand -10.5564 24.7121
lfingers 7.12502
lthumb 15.4478 54.1148
rfemur -20.5465 3.11815 8.89649
rtibia 30.3804
rfoot -15.4574 -9.53364
rtoes 1.30806
lfemur -13.1077 1.69468 -25.5537
ltibia 23.53
lfoot -12.6931 0.548493
ltoes -8.19462
15
root 1.46776 17.8401 -0.714584 5.80543 -17.2872 1.99261
lowerback 5.09633 0.0480103 -6.31489
upperback 1.83978 -0.250929 -0.0821515
thorax -0.92995 -0.142285 3.47429
lowerneck -17.9558 -6.31297 -14.3587
upperneck 20.6369 -5.92801 5.17769
head 10.1769 -3.29266 3.3355
rclavicle -2.73329e-014 -2.56432e-014
rhumerus -24.1764 -0.883595 -86.0811
rradius 35.5612
rwrist 19.6933
rhand -20.2355 1.05919
rfingers 7.12502
rthumb 6.11246 -28.8326
lclavicle -2.73329e-014 -2.56432e-014
lhumerus -29.3991 9.36667 79.7829
lradius 32.8256
lwrist -7.22462
lhand -10.3703 25.0439
lfingers 7.12502
lthumb 15.627 54.4327
rfemur -20.5721 3.09094 8.88897
rtibia 30.3831
rfoot -15.384 -9.53454
rtoes 0.794998
lfemur -13.1199 1.76454 -25.586
ltibia 23.5811
lfoot -12.7241 0.587854
ltoes -8.41778
